<svg xmlns="http://www.w3.org/2000/svg" width="1400" height="1140" viewBox="0 0 1400 1140">
<rect width="100%" height="100%" fill="#ffffff"/>
<text x="40" y="48" font-family="Arial, sans-serif" font-size="28" font-weight="700" fill="#111827">Template-Based Beauty Product Taxonomy</text>
<text x="40" y="78" font-family="Arial, sans-serif" font-size="14" fill="#6b7280">Generated from KMeans clusters over template Jina embeddings. Leaf badges show source template_cluster IDs and label confidence.</text>
<rect x="550.0" y="120" width="300" height="52" rx="10" fill="#111827"/>
<text x="700.0" y="154" text-anchor="middle" font-family="Arial, sans-serif" font-size="20" font-weight="700" fill="#ffffff">Beauty</text>
<path d="M 700.0 172.0 C 700.0 196.0, 190.0 193.0, 190.0 217.0" fill="none" stroke="#d1d5db" stroke-width="1.5"/>
<rect x="40" y="217" width="300" height="152" rx="12" fill="#f9fafb" stroke="#d1d5db"/>
<rect x="40" y="217" width="300" height="44" rx="12" fill="#eef2ff" stroke="#d1d5db"/>
<text x="54" y="245" font-family="Arial, sans-serif" font-size="16" font-weight="700" fill="#111827">Beauty Tools and Accessories</text>
<text x="326" y="245" text-anchor="end" font-family="Arial, sans-serif" font-size="12" fill="#6b7280">2 leaves</text>
<rect x="56" y="275" width="260" height="22" rx="6" fill="#ffffff" stroke="#d1d5db"/>
<text x="66" y="290" font-family="Arial, sans-serif" font-size="12" fill="#111827">Refillable Containers</text>
<rect x="270" y="278" width="54" height="16" rx="8" fill="#dcfce7" stroke="#d1d5db"/>
<text x="297.0" y="290" text-anchor="middle" font-family="Arial, sans-serif" font-size="10" fill="#111827">c5</text>
<rect x="56" y="303" width="260" height="22" rx="6" fill="#ffffff" stroke="#d1d5db"/>
<text x="66" y="318" font-family="Arial, sans-serif" font-size="12" fill="#111827">Miscellaneous Accessories</text>
<rect x="270" y="306" width="54" height="16" rx="8" fill="#fee2e2" stroke="#d1d5db"/>
<text x="297.0" y="318" text-anchor="middle" font-family="Arial, sans-serif" font-size="10" fill="#111827">c13</text>
<path d="M 700.0 172.0 C 700.0 196.0, 190.0 369.0, 190.0 393.0" fill="none" stroke="#d1d5db" stroke-width="1.5"/>
<rect x="40" y="393" width="300" height="124" rx="12" fill="#f9fafb" stroke="#d1d5db"/>
<rect x="40" y="393" width="300" height="44" rx="12" fill="#eef2ff" stroke="#d1d5db"/>
<text x="54" y="421" font-family="Arial, sans-serif" font-size="16" font-weight="700" fill="#111827">Body Art</text>
<text x="326" y="421" text-anchor="end" font-family="Arial, sans-serif" font-size="12" fill="#6b7280">1 leaves</text>
<rect x="56" y="451" width="260" height="22" rx="6" fill="#ffffff" stroke="#d1d5db"/>
<text x="66" y="466" font-family="Arial, sans-serif" font-size="12" fill="#111827">Temporary Tattoos</text>
<rect x="270" y="454" width="54" height="16" rx="8" fill="#dcfce7" stroke="#d1d5db"/>
<text x="297.0" y="466" text-anchor="middle" font-family="Arial, sans-serif" font-size="10" fill="#111827">c18</text>
<path d="M 700.0 172.0 C 700.0 196.0, 190.0 517.0, 190.0 541.0" fill="none" stroke="#d1d5db" stroke-width="1.5"/>
<rect x="40" y="541" width="300" height="124" rx="12" fill="#f9fafb" stroke="#d1d5db"/>
<rect x="40" y="541" width="300" height="44" rx="12" fill="#eef2ff" stroke="#d1d5db"/>
<text x="54" y="569" font-family="Arial, sans-serif" font-size="16" font-weight="700" fill="#111827">Body Care</text>
<text x="326" y="569" text-anchor="end" font-family="Arial, sans-serif" font-size="12" fill="#6b7280">1 leaves</text>
<rect x="56" y="599" width="260" height="22" rx="6" fill="#ffffff" stroke="#d1d5db"/>
<text x="66" y="614" font-family="Arial, sans-serif" font-size="12" fill="#111827">Bath and Body Care</text>
<rect x="270" y="602" width="54" height="16" rx="8" fill="#dcfce7" stroke="#d1d5db"/>
<text x="297.0" y="614" text-anchor="middle" font-family="Arial, sans-serif" font-size="10" fill="#111827">c10</text>
<path d="M 700.0 172.0 C 700.0 196.0, 190.0 665.0, 190.0 689.0" fill="none" stroke="#d1d5db" stroke-width="1.5"/>
<rect x="40" y="689" width="300" height="124" rx="12" fill="#f9fafb" stroke="#d1d5db"/>
<rect x="40" y="689" width="300" height="44" rx="12" fill="#eef2ff" stroke="#d1d5db"/>
<text x="54" y="717" font-family="Arial, sans-serif" font-size="16" font-weight="700" fill="#111827">Fragrance</text>
<text x="326" y="717" text-anchor="end" font-family="Arial, sans-serif" font-size="12" fill="#6b7280">1 leaves</text>
<rect x="56" y="747" width="260" height="22" rx="6" fill="#ffffff" stroke="#d1d5db"/>
<text x="66" y="762" font-family="Arial, sans-serif" font-size="12" fill="#111827">Fragrance and Deodorant</text>
<rect x="270" y="750" width="54" height="16" rx="8" fill="#dcfce7" stroke="#d1d5db"/>
<text x="297.0" y="762" text-anchor="middle" font-family="Arial, sans-serif" font-size="10" fill="#111827">c9</text>
<path d="M 700.0 172.0 C 700.0 196.0, 190.0 813.0, 190.0 837.0" fill="none" stroke="#d1d5db" stroke-width="1.5"/>
<rect x="40" y="837" width="300" height="124" rx="12" fill="#f9fafb" stroke="#d1d5db"/>
<rect x="40" y="837" width="300" height="44" rx="12" fill="#eef2ff" stroke="#d1d5db"/>
<text x="54" y="865" font-family="Arial, sans-serif" font-size="16" font-weight="700" fill="#111827">Grooming</text>
<text x="326" y="865" text-anchor="end" font-family="Arial, sans-serif" font-size="12" fill="#6b7280">1 leaves</text>
<rect x="56" y="895" width="260" height="22" rx="6" fill="#ffffff" stroke="#d1d5db"/>
<text x="66" y="910" font-family="Arial, sans-serif" font-size="12" fill="#111827">Grooming Tools</text>
<rect x="270" y="898" width="54" height="16" rx="8" fill="#fef3c7" stroke="#d1d5db"/>
<text x="297.0" y="910" text-anchor="middle" font-family="Arial, sans-serif" font-size="10" fill="#111827">c11</text>
<path d="M 700.0 172.0 C 700.0 196.0, 870.0 193.0, 870.0 217.0" fill="none" stroke="#d1d5db" stroke-width="1.5"/>
<rect x="720.0" y="217" width="300" height="264" rx="12" fill="#f9fafb" stroke="#d1d5db"/>
<rect x="720.0" y="217" width="300" height="44" rx="12" fill="#eef2ff" stroke="#d1d5db"/>
<text x="734.0" y="245" font-family="Arial, sans-serif" font-size="16" font-weight="700" fill="#111827">Hair</text>
<text x="1006.0" y="245" text-anchor="end" font-family="Arial, sans-serif" font-size="12" fill="#6b7280">6 leaves</text>
<rect x="736.0" y="275" width="260" height="22" rx="6" fill="#ffffff" stroke="#d1d5db"/>
<text x="746.0" y="290" font-family="Arial, sans-serif" font-size="12" fill="#111827">Headbands and Hair Covers</text>
<rect x="950.0" y="278" width="54" height="16" rx="8" fill="#dcfce7" stroke="#d1d5db"/>
<text x="977.0" y="290" text-anchor="middle" font-family="Arial, sans-serif" font-size="10" fill="#111827">c1</text>
<rect x="736.0" y="303" width="260" height="22" rx="6" fill="#ffffff" stroke="#d1d5db"/>
<text x="746.0" y="318" font-family="Arial, sans-serif" font-size="12" fill="#111827">Hair Care Products</text>
<rect x="950.0" y="306" width="54" height="16" rx="8" fill="#dcfce7" stroke="#d1d5db"/>
<text x="977.0" y="318" text-anchor="middle" font-family="Arial, sans-serif" font-size="10" fill="#111827">c2</text>
<rect x="736.0" y="331" width="260" height="22" rx="6" fill="#ffffff" stroke="#d1d5db"/>
<text x="746.0" y="346" font-family="Arial, sans-serif" font-size="12" fill="#111827">Hair Extensions</text>
<rect x="950.0" y="334" width="54" height="16" rx="8" fill="#dcfce7" stroke="#d1d5db"/>
<text x="977.0" y="346" text-anchor="middle" font-family="Arial, sans-serif" font-size="10" fill="#111827">c3</text>
<rect x="736.0" y="359" width="260" height="22" rx="6" fill="#ffffff" stroke="#d1d5db"/>
<text x="746.0" y="374" font-family="Arial, sans-serif" font-size="12" fill="#111827">Hair Clips and Accessories</text>
<rect x="950.0" y="362" width="54" height="16" rx="8" fill="#dcfce7" stroke="#d1d5db"/>
<text x="977.0" y="374" text-anchor="middle" font-family="Arial, sans-serif" font-size="10" fill="#111827">c12</text>
<rect x="736.0" y="387" width="260" height="22" rx="6" fill="#ffffff" stroke="#d1d5db"/>
<text x="746.0" y="402" font-family="Arial, sans-serif" font-size="12" fill="#111827">Wigs and Hairpieces</text>
<rect x="950.0" y="390" width="54" height="16" rx="8" fill="#dcfce7" stroke="#d1d5db"/>
<text x="977.0" y="402" text-anchor="middle" font-family="Arial, sans-serif" font-size="10" fill="#111827">c16</text>
<rect x="736.0" y="415" width="260" height="22" rx="6" fill="#ffffff" stroke="#d1d5db"/>
<text x="746.0" y="430" font-family="Arial, sans-serif" font-size="12" fill="#111827">Hair Curling Tools</text>
<rect x="950.0" y="418" width="54" height="16" rx="8" fill="#dcfce7" stroke="#d1d5db"/>
<text x="977.0" y="430" text-anchor="middle" font-family="Arial, sans-serif" font-size="10" fill="#111827">c17</text>
<path d="M 700.0 172.0 C 700.0 196.0, 870.0 481.0, 870.0 505.0" fill="none" stroke="#d1d5db" stroke-width="1.5"/>
<rect x="720.0" y="505" width="300" height="180" rx="12" fill="#f9fafb" stroke="#d1d5db"/>
<rect x="720.0" y="505" width="300" height="44" rx="12" fill="#eef2ff" stroke="#d1d5db"/>
<text x="734.0" y="533" font-family="Arial, sans-serif" font-size="16" font-weight="700" fill="#111827">Makeup</text>
<text x="1006.0" y="533" text-anchor="end" font-family="Arial, sans-serif" font-size="12" fill="#6b7280">3 leaves</text>
<rect x="736.0" y="563" width="260" height="22" rx="6" fill="#ffffff" stroke="#d1d5db"/>
<text x="746.0" y="578" font-family="Arial, sans-serif" font-size="12" fill="#111827">Eye and Brow Makeup</text>
<rect x="950.0" y="566" width="54" height="16" rx="8" fill="#dcfce7" stroke="#d1d5db"/>
<text x="977.0" y="578" text-anchor="middle" font-family="Arial, sans-serif" font-size="10" fill="#111827">c0</text>
<rect x="736.0" y="591" width="260" height="22" rx="6" fill="#ffffff" stroke="#d1d5db"/>
<text x="746.0" y="606" font-family="Arial, sans-serif" font-size="12" fill="#111827">Face Makeup</text>
<rect x="950.0" y="594" width="54" height="16" rx="8" fill="#fef3c7" stroke="#d1d5db"/>
<text x="977.0" y="606" text-anchor="middle" font-family="Arial, sans-serif" font-size="10" fill="#111827">c6</text>
<rect x="736.0" y="619" width="260" height="22" rx="6" fill="#ffffff" stroke="#d1d5db"/>
<text x="746.0" y="634" font-family="Arial, sans-serif" font-size="12" fill="#111827">False Eyelashes</text>
<rect x="950.0" y="622" width="54" height="16" rx="8" fill="#dcfce7" stroke="#d1d5db"/>
<text x="977.0" y="634" text-anchor="middle" font-family="Arial, sans-serif" font-size="10" fill="#111827">c19</text>
<path d="M 700.0 172.0 C 700.0 196.0, 870.0 685.0, 870.0 709.0" fill="none" stroke="#d1d5db" stroke-width="1.5"/>
<rect x="720.0" y="709" width="300" height="208" rx="12" fill="#f9fafb" stroke="#d1d5db"/>
<rect x="720.0" y="709" width="300" height="44" rx="12" fill="#eef2ff" stroke="#d1d5db"/>
<text x="734.0" y="737" font-family="Arial, sans-serif" font-size="16" font-weight="700" fill="#111827">Nails</text>
<text x="1006.0" y="737" text-anchor="end" font-family="Arial, sans-serif" font-size="12" fill="#6b7280">4 leaves</text>
<rect x="736.0" y="767" width="260" height="22" rx="6" fill="#ffffff" stroke="#d1d5db"/>
<text x="746.0" y="782" font-family="Arial, sans-serif" font-size="12" fill="#111827">Nail Tools</text>
<rect x="950.0" y="770" width="54" height="16" rx="8" fill="#dcfce7" stroke="#d1d5db"/>
<text x="977.0" y="782" text-anchor="middle" font-family="Arial, sans-serif" font-size="10" fill="#111827">c4</text>
<rect x="736.0" y="795" width="260" height="22" rx="6" fill="#ffffff" stroke="#d1d5db"/>
<text x="746.0" y="810" font-family="Arial, sans-serif" font-size="12" fill="#111827">Nail Art Decals</text>
<rect x="950.0" y="798" width="54" height="16" rx="8" fill="#dcfce7" stroke="#d1d5db"/>
<text x="977.0" y="810" text-anchor="middle" font-family="Arial, sans-serif" font-size="10" fill="#111827">c8</text>
<rect x="736.0" y="823" width="260" height="22" rx="6" fill="#ffffff" stroke="#d1d5db"/>
<text x="746.0" y="838" font-family="Arial, sans-serif" font-size="12" fill="#111827">Nail Polish</text>
<rect x="950.0" y="826" width="54" height="16" rx="8" fill="#dcfce7" stroke="#d1d5db"/>
<text x="977.0" y="838" text-anchor="middle" font-family="Arial, sans-serif" font-size="10" fill="#111827">c14</text>
<rect x="736.0" y="851" width="260" height="22" rx="6" fill="#ffffff" stroke="#d1d5db"/>
<text x="746.0" y="866" font-family="Arial, sans-serif" font-size="12" fill="#111827">False Nails</text>
<rect x="950.0" y="854" width="54" height="16" rx="8" fill="#dcfce7" stroke="#d1d5db"/>
<text x="977.0" y="866" text-anchor="middle" font-family="Arial, sans-serif" font-size="10" fill="#111827">c15</text>
<path d="M 700.0 172.0 C 700.0 196.0, 870.0 917.0, 870.0 941.0" fill="none" stroke="#d1d5db" stroke-width="1.5"/>
<rect x="720.0" y="941" width="300" height="124" rx="12" fill="#f9fafb" stroke="#d1d5db"/>
<rect x="720.0" y="941" width="300" height="44" rx="12" fill="#eef2ff" stroke="#d1d5db"/>
<text x="734.0" y="969" font-family="Arial, sans-serif" font-size="16" font-weight="700" fill="#111827">Skin Care</text>
<text x="1006.0" y="969" text-anchor="end" font-family="Arial, sans-serif" font-size="12" fill="#6b7280">1 leaves</text>
<rect x="736.0" y="999" width="260" height="22" rx="6" fill="#ffffff" stroke="#d1d5db"/>
<text x="746.0" y="1014" font-family="Arial, sans-serif" font-size="12" fill="#111827">Skin Care Treatments</text>
<rect x="950.0" y="1002" width="54" height="16" rx="8" fill="#fef3c7" stroke="#d1d5db"/>
<text x="977.0" y="1014" text-anchor="middle" font-family="Arial, sans-serif" font-size="10" fill="#111827">c7</text>
<text x="40" y="1104" font-family="Arial, sans-serif" font-size="12" fill="#6b7280">Confidence:</text>
<rect x="122" y="1092" width="18" height="12" rx="3" fill="#dcfce7" stroke="#d1d5db"/>
<text x="146" y="1104" font-family="Arial, sans-serif" font-size="12" fill="#6b7280">high</text>
<rect x="214" y="1092" width="18" height="12" rx="3" fill="#fef3c7" stroke="#d1d5db"/>
<text x="238" y="1104" font-family="Arial, sans-serif" font-size="12" fill="#6b7280">medium</text>
<rect x="306" y="1092" width="18" height="12" rx="3" fill="#fee2e2" stroke="#d1d5db"/>
<text x="330" y="1104" font-family="Arial, sans-serif" font-size="12" fill="#6b7280">low</text>
</svg>